<svg viewBox="0 0 171.224 57.6162" xmlns="http://www.w3.org/2000/svg" xmlns:xlink="http://www.w3.org/1999/xlink" width="171.223633" height="57.616211" fill="none" customFrame="#000000">
	<g id="Group 3">
		<g id="Group 2">
			<g id="МАСТЕР">
				<path id="Vector" d="M163.67 5.29785C165.211 5.29785 166.544 5.55458 167.67 6.06803C168.813 6.58149 169.691 7.31026 170.304 8.25436C170.917 9.19845 171.223 10.3165 171.223 11.6084C171.223 12.8837 170.917 14.0017 170.304 14.9624C169.691 15.9065 168.813 16.6353 167.67 17.1487C166.544 17.6456 165.211 17.8941 163.67 17.8941L160.167 17.8941L160.167 22.6891L156.143 22.6891L156.143 5.29785L163.67 5.29785ZM163.447 14.6146C164.656 14.6146 165.575 14.3578 166.205 13.8444C166.834 13.3144 167.149 12.569 167.149 11.6084C167.149 10.6312 166.834 9.88582 166.205 9.37236C165.575 8.84235 164.656 8.57734 163.447 8.57734L160.167 8.57734L160.167 14.6146L163.447 14.6146Z" fill="rgb(99,80,69)" fill-rule="nonzero" />
				<path id="Vector" d="M152.893 19.4593L152.893 22.6891L139.427 22.6891L139.427 5.29785L152.57 5.29785L152.57 8.52765L143.427 8.52765L143.427 12.304L151.501 12.304L151.501 15.4344L143.427 15.4344L143.427 19.4593L152.893 19.4593Z" fill="rgb(99,80,69)" fill-rule="nonzero" />
				<path id="Vector" d="M136.899 8.57734L131.334 8.57734L131.334 22.6891L127.359 22.6891L127.359 8.57734L121.818 8.57734L121.818 5.29785L136.899 5.29785L136.899 8.57734Z" fill="rgb(99,80,69)" fill-rule="nonzero" />
				<path id="Vector" d="M113.974 22.9875C112.201 22.9875 110.595 22.6065 109.154 21.8446C107.729 21.0662 106.603 19.9978 105.775 18.6397C104.963 17.2649 104.558 15.7163 104.558 13.9937C104.558 12.2712 104.963 10.7308 105.775 9.37265C106.603 7.99791 107.729 6.9296 109.154 6.1677C110.595 5.38923 112.21 5 113.999 5C115.506 5 116.864 5.26501 118.073 5.79503C119.299 6.32504 120.326 7.08695 121.154 8.08073L118.57 10.4658C117.394 9.10764 115.936 8.42855 114.197 8.42855C113.121 8.42855 112.16 8.66872 111.315 9.14905C110.471 9.61281 109.808 10.2671 109.328 11.1118C108.864 11.9565 108.632 12.9171 108.632 13.9937C108.632 15.0703 108.864 16.031 109.328 16.8757C109.808 17.7204 110.471 18.3829 111.315 18.8633C112.16 19.327 113.121 19.5589 114.197 19.5589C115.936 19.5589 117.394 18.8716 118.57 17.4968L121.154 19.8819C120.326 20.8923 119.299 21.6624 118.073 22.1925C116.847 22.7225 115.481 22.9875 113.974 22.9875Z" fill="rgb(99,80,69)" fill-rule="nonzero" />
				<path id="Vector" d="M97.9227 18.9624L89.8482 18.9624L88.3078 22.6891L84.1836 22.6891L91.9351 5.29785L95.9102 5.29785L103.687 22.6891L99.463 22.6891L97.9227 18.9624ZM96.6556 15.9065L93.8978 9.24814L91.1401 15.9065L96.6556 15.9065Z" fill="rgb(99,80,69)" fill-rule="nonzero" />
				<path id="Vector" d="M78.0496 22.6891L78.0248 12.2792L72.9068 20.8506L71.118 20.8506L66 12.4779L66 22.6891L62.2236 22.6891L62.2236 5.29785L65.5528 5.29785L72.0621 16.1052L78.472 5.29785L81.8012 5.29785L81.826 22.6891L78.0496 22.6891Z" fill="rgb(99,80,69)" fill-rule="nonzero" />
			</g>
			<g id="СТИРКА">
				<path id="Vector" d="M164.381 43.5088L156.306 43.5088L154.766 47.2355L150.642 47.2355L158.393 29.8442L162.368 29.8442L170.145 47.2355L165.921 47.2355L164.381 43.5088ZM163.114 40.4529L160.356 33.7945L157.598 40.4529L163.114 40.4529Z" fill="rgb(98.551,80.3298,69.0031)" fill-rule="nonzero" />
				<path id="Vector" d="M141.965 40.2293L139.183 40.2293L139.183 47.2355L135.183 47.2355L135.183 29.8442L139.183 29.8442L139.183 36.8753L142.065 36.8753L146.636 29.8442L150.884 29.8442L145.195 38.2417L151.058 47.2355L146.487 47.2355L141.965 40.2293Z" fill="rgb(98.551,80.3298,69.0031)" fill-rule="nonzero" />
				<path id="Vector" d="M125.025 29.8442C126.565 29.8442 127.899 30.101 129.025 30.6144C130.168 31.1279 131.046 31.8567 131.658 32.8007C132.271 33.7448 132.578 34.8628 132.578 36.1548C132.578 37.4301 132.271 38.5481 131.658 39.5088C131.046 40.4529 130.168 41.1817 129.025 41.6951C127.899 42.192 126.565 42.4404 125.025 42.4404L121.522 42.4404L121.522 47.2355L117.497 47.2355L117.497 29.8442L125.025 29.8442ZM124.801 39.161C126.01 39.161 126.93 38.9042 127.559 38.3908C128.189 37.8608 128.503 37.1154 128.503 36.1548C128.503 35.1775 128.189 34.4322 127.559 33.9188C126.93 33.3887 126.01 33.1237 124.801 33.1237L121.522 33.1237L121.522 39.161L124.801 39.161Z" fill="rgb(98.551,80.3298,69.0031)" fill-rule="nonzero" />
				<path id="Vector" d="M97.0928 29.8442L101.093 29.8442L101.093 41.1734L109.391 29.8442L113.167 29.8442L113.167 47.2355L109.192 47.2355L109.192 35.9312L100.894 47.2355L97.0928 47.2355L97.0928 29.8442Z" fill="rgb(98.551,80.3298,69.0031)" fill-rule="nonzero" />
				<path id="Vector" d="M94.565 33.1237L88.9998 33.1237L88.9998 47.2355L85.0247 47.2355L85.0247 33.1237L79.4844 33.1237L79.4844 29.8442L94.565 29.8442L94.565 33.1237Z" fill="rgb(98.551,80.3298,69.0031)" fill-rule="nonzero" />
				<path id="Vector" d="M71.6397 47.5334C69.8675 47.5334 68.2609 47.1524 66.8199 46.3905C65.3955 45.6121 64.2692 44.5437 63.441 43.1856C62.6294 41.8108 62.2236 40.2622 62.2236 38.5396C62.2236 36.8171 62.6294 35.2767 63.441 33.9185C64.2692 32.5438 65.3955 31.4755 66.8199 30.7136C68.2609 29.9351 69.8758 29.5459 71.6646 29.5459C73.1718 29.5459 74.53 29.8109 75.7391 30.3409C76.9648 30.8709 77.9917 31.6328 78.8198 32.6266L76.236 35.0117C75.06 33.6535 73.6025 32.9745 71.8633 32.9745C70.7867 32.9745 69.8261 33.2146 68.9814 33.6949C68.1366 34.1587 67.4741 34.813 66.9938 35.6577C66.53 36.5024 66.2981 37.463 66.2981 38.5396C66.2981 39.6162 66.53 40.5769 66.9938 41.4216C67.4741 42.2663 68.1366 42.9288 68.9814 43.4092C69.8261 43.8729 70.7867 44.1048 71.8633 44.1048C73.6025 44.1048 75.06 43.4175 76.236 42.0427L78.8198 44.4278C77.9917 45.4382 76.9648 46.2083 75.7391 46.7384C74.5134 47.2684 73.147 47.5334 71.6397 47.5334Z" fill="rgb(98.551,80.3298,69.0031)" fill-rule="nonzero" />
			</g>
		</g>
		<g id="Group 4">
			<g id="Group 1">
				<path id="Subtract" d="M5.44964 3.82324C2.43988 3.82324 0 6.26313 0 9.27288L0 19.5004C0.029097 19.4603 0.0583786 19.4205 0.0878458 19.3811L7.64702 22.897C6.41645 26.1199 3.95533 33.7435 3.95533 38.4548C3.95533 44.3439 11.075 53.5732 14.3272 54.54L14.3469 54.5459C17.6266 55.521 29.3649 59.0108 32.9615 53.0458C35.8445 48.2642 38.8506 46.014 39.9932 45.4866L45.355 51.6316L45.355 9.27288C45.355 6.26313 42.9151 3.82324 39.9054 3.82324L5.44964 3.82324Z" fill="rgb(213.317,175.32,154.86)" fill-rule="evenodd" />
				<path id="Ellipse 1" d="M39.7301 36.9608C39.7301 46.3298 32.135 53.9249 22.7659 53.9249C13.3969 53.9249 5.80176 46.3298 5.80176 36.9608C5.80176 27.5917 13.3969 19.9966 22.7659 19.9966C32.135 19.9966 39.7301 27.5917 39.7301 36.9608Z" fill="rgb(213.317,175.32,154.86)" fill-rule="nonzero" />
				<path id="Ellipse 1 (Stroke)" d="M39.7294 36.9606C39.7294 27.5915 32.1343 19.9964 22.7652 19.9964C13.3962 19.9964 5.80106 27.5915 5.80106 36.9606C5.80106 46.3296 13.3962 53.9247 22.7652 53.9247C32.1343 53.9247 39.7294 46.3296 39.7294 36.9606ZM43.4211 36.9606C43.4211 48.3685 34.1732 57.6164 22.7652 57.6164C11.3573 57.6164 2.10938 48.3685 2.10938 36.9606C2.10938 25.5526 11.3573 16.3047 22.7652 16.3047C34.1732 16.3047 43.4211 25.5526 43.4211 36.9606Z" fill="rgb(244,240,238)" fill-rule="nonzero" />
				<path id="Vector 1" d="M14.6787 24.9188C5.32643 32.7241 8.67238 42.4104 11.5144 46.2779C22.3258 56.8255 28.5665 49.618 29.8849 45.9263C30.9397 42.9729 31.2913 40.9018 26.1054 39.9492C21.7984 39.1582 11.5144 39.4219 14.6787 29.929C17.843 20.436 28.6251 23.8054 32.7855 27.292C26.3163 19.5571 18.0188 22.487 14.6787 24.9188Z" fill="rgb(244,240,238)" fill-rule="nonzero" />
				<path id="Ellipse 2" d="M39.7301 11.0311C39.7301 13.3612 37.8412 15.2502 35.5111 15.2502C33.1809 15.2502 31.292 13.3612 31.292 11.0311C31.292 8.70095 33.1809 6.81201 35.5111 6.81201C37.8412 6.81201 39.7301 8.70095 39.7301 11.0311Z" fill="rgb(213.317,175.32,154.86)" fill-rule="nonzero" />
				<path id="Ellipse 2 (Stroke)" d="M37.9722 11.0311C37.9722 9.67184 36.8703 8.56996 35.5111 8.56996C34.1518 8.56996 33.0499 9.67184 33.0499 11.0311C33.0499 12.3903 34.1518 13.4922 35.5111 13.4922L35.5111 15.2502C33.1809 15.2502 31.292 13.3612 31.292 11.0311C31.292 8.70095 33.1809 6.81201 35.5111 6.81201C37.8412 6.81201 39.7301 8.70095 39.7301 11.0311C39.7301 13.3612 37.8412 15.2502 35.5111 15.2502L35.5111 13.4922C36.8703 13.4922 37.9722 12.3903 37.9722 11.0311Z" fill="rgb(244,240,238)" fill-rule="nonzero" />
				<path id="Ellipse 4" d="M8.43814 6.06492C8.43814 9.41448 6.5492 12.1298 4.21907 12.1298C1.88894 12.1298 0 9.41448 0 6.06492C0 2.71536 1.88894 0 4.21907 0C6.5492 0 8.43814 2.71536 8.43814 6.06492Z" fill="rgb(244,240,238)" fill-rule="nonzero" transform="matrix(0.869269,0.494339,-0.494339,0.869269,21.291,23.8643)" />
				<path id="Ellipse 3 (Stroke)" d="M23.9085 10.5036C23.9085 9.82402 23.3576 9.27308 22.678 9.27308C21.9983 9.27308 21.4474 9.82402 21.4474 10.5036C21.4474 11.1833 21.9983 11.7342 22.678 11.7342L22.678 13.4922C21.0275 13.4922 19.6895 12.1542 19.6895 10.5036C19.6895 8.85314 21.0275 7.51514 22.678 7.51514C24.3285 7.51514 25.6665 8.85314 25.6665 10.5036C25.6665 12.1542 24.3285 13.4922 22.678 13.4922L22.678 11.7342C23.3576 11.7342 23.9085 11.1833 23.9085 10.5036Z" fill="rgb(244,240,238)" fill-rule="nonzero" />
				<path id="Line 1 (Stroke)" d="M16.1738 8.74561C16.6592 8.74561 17.0527 9.13914 17.0527 9.62458C17.0527 10.11 16.6592 10.5036 16.1738 10.5036L4.92292 10.5036C4.43748 10.5036 4.04395 10.11 4.04395 9.62458C4.04395 9.13914 4.43748 8.74561 4.92292 8.74561L16.1738 8.74561Z" fill="rgb(244,240,238)" fill-rule="nonzero" />
				<path id="Line 2 (Stroke)" d="M16.1738 11.7344C16.6592 11.7344 17.0527 12.1279 17.0527 12.6133C17.0527 13.0988 16.6592 13.4923 16.1738 13.4923L4.92292 13.4923C4.43748 13.4923 4.04395 13.0988 4.04395 12.6133C4.04395 12.1279 4.43748 11.7344 4.92292 11.7344L16.1738 11.7344Z" fill="rgb(244,240,238)" fill-rule="nonzero" />
			</g>
			<circle id="Ellipse 5" cx="45.4998932" cy="4.97059441" r="4.97059441" fill="rgb(213.317,175.32,154.86)" />
			<circle id="Ellipse 5" cx="45.4998932" cy="4.97059441" r="3.97059441" stroke="rgb(244,240,238)" stroke-width="2" />
		</g>
	</g>
</svg>
